#!OML:ASF E:\Style4\Style4.ASF
:FULLY-SPECIFIED
:DEGREES
1163
root -0.000906743 17.6144 -1.49492 2.11842 -1.65186 3.25691
lowerback 9.01712 2.75243 -0.137793
upperback 0.317479 3.59494 -1.07301
thorax -4.66013 1.76874 -1.49907
lowerneck -3.97116 -5.42847 -5.35497
upperneck -3.47517 -6.96492 5.54024
head -0.00624597 -3.42868 2.56327
rclavicle -1.4238e-014 1.39149e-014
rhumerus 65.3704 -18.3728 -53.6201
rradius 45.9428
rwrist -65.9894
rhand 6.25061 13.6322
rfingers 7.12502
rthumb 31.5621 -13.6606
lclavicle -1.4238e-014 1.39149e-014
lhumerus 64.7853 9.77235 49.764
lradius 58.493
lwrist 72.7104
lhand 11.2714 25.8728
lfingers 7.12502
lthumb 36.3312 52.1072
rfemur -20.6374 -1.17379 15.3511
rtibia 38.4844
rfoot -18.7508 -14.297
rtoes -13.2829
lfemur -18.1918 -0.239106 -22.4635
ltibia 35.2952
lfoot -19.4921 9.14954
ltoes -13.2729
1164
root -0.00104327 17.6202 -1.49613 2.1163 -1.65813 3.19986
lowerback 9.01434 2.74343 -0.108657
upperback 0.298406 3.58647 -1.06146
thorax -4.67761 1.76386 -1.50282
lowerneck -4.00747 -5.44654 -5.29087
upperneck -3.27428 -6.99631 5.48278
head 0.0604 -3.4446 2.52732
rclavicle -6.44808e-014 1.68967e-014
rhumerus 64.8681 -17.8684 -53.0863
rradius 46.1901
rwrist -66.035
rhand 5.46101 13.684
rfingers 7.12502
rthumb 30.8096 -13.7536
lclavicle -6.44808e-014 1.68967e-014
lhumerus 64.4357 9.42756 49.3848
lradius 58.8213
lwrist 72.9118
lhand 11.1467 25.9626
lfingers 7.12502
lthumb 36.2132 52.2264
rfemur -20.5808 -1.13828 15.422
rtibia 38.3861
rfoot -18.6346 -14.3291
rtoes -13.6024
lfemur -18.1425 -0.218394 -22.4061
ltibia 35.1994
lfoot -19.3715 9.25106
ltoes -13.941
1165
root -0.00122467 17.6286 -1.4971 2.10475 -1.66385 3.08287
lowerback 8.99027 2.7269 -0.049438
upperback 0.263564 3.5727 -1.01856
thorax -4.69992 1.75596 -1.48956
lowerneck -3.87358 -5.4241 -5.29087
upperneck -3.18428 -6.97534 5.49003
head 0.065138 -3.43593 2.53277
rclavicle 1.16786e-015 3.57812e-015
rhumerus 64.356 -17.2619 -52.6099
rradius 46.4234
rwrist -66.0084
rhand 4.9001 13.8343
rfingers 7.12502
rthumb 30.2747 -13.7029
lclavicle 1.16786e-015 3.57812e-015
lhumerus 63.9547 9.00477 48.9016
lradius 59.317
lwrist 73.0891
lhand 10.9402 25.9571
lfingers 7.12502
lthumb 36.0175 52.2693
rfemur -20.4847 -1.11205 15.5693
rtibia 38.2825
rfoot -18.5041 -14.2685
rtoes -13.2794
lfemur -18.0855 -0.160622 -22.284
ltibia 35.1083
lfoot -19.1781 9.39992
ltoes -15.2272
1166
root -0.000190041 17.6371 -1.49682 2.08994 -1.67137 3.02037
lowerback 8.94054 2.69559 -0.031132
upperback 0.311415 3.53547 -0.976894
thorax -4.62445 1.73837 -1.44736
lowerneck -4.00878 -5.38261 -5.28204
upperneck -3.05095 -6.91834 5.43104
head 0.124385 -3.40576 2.50692
rclavicle 5.32991e-014 -1.33186e-014
rhumerus 64.0371 -16.6634 -52.2261
rradius 46.578
rwrist -65.8845
rhand 4.60787 14.0447
rfingers 7.12502
rthumb 29.9959 -13.5433
lclavicle 5.32991e-014 -1.33186e-014
lhumerus 63.5456 8.66796 48.4457
lradius 59.9027
lwrist 73.2687
lhand 10.7155 26.1049
lfingers 7.12502
lthumb 35.8046 52.4691
rfemur -20.3675 -1.12027 15.6367
rtibia 38.1859
rfoot -18.4872 -14.0723
rtoes -12.2657
lfemur -18.0043 -0.154486 -22.2281
ltibia 34.9974
lfoot -19.1027 9.48533
ltoes -15.4929
1167
root 0.000810501 17.6424 -1.49738 2.08477 -1.63185 2.93
lowerback 8.87881 2.65602 0.0235147
upperback 0.313673 3.49066 -0.938549
thorax -4.58759 1.71583 -1.42903
lowerneck -3.8889 -5.34755 -5.20335
upperneck -3.01741 -6.88178 5.33482
head 0.105526 -3.38991 2.46506
rclavicle 1.32192e-014 1.27222e-014
rhumerus 63.6128 -16.0037 -51.8268
rradius 46.7705
rwrist -65.7118
rhand 4.27774 14.2092
rfingers 7.12502
rthumb 29.6808 -13.4354
lclavicle 1.32192e-014 1.27222e-014
lhumerus 62.9642 8.18529 47.7717
lradius 60.6392
lwrist 73.5911
lhand 10.2963 26.2298
lfingers 7.12502
lthumb 35.4073 52.6897
rfemur -20.2796 -1.14551 15.7343
rtibia 38.0965
rfoot -18.5525 -13.9343
rtoes -11.6625
lfemur -17.95 -0.196177 -22.131
ltibia 34.8932
lfoot -19.128 9.43074
ltoes -14.9374
1168
root 0.00299292 17.6443 -1.49879 2.06587 -1.60372 2.99064
lowerback 8.84151 2.60275 -0.0917899
upperback 0.279973 3.40898 -0.923203
thorax -4.61131 1.67781 -1.33775
lowerneck -3.73996 -5.30209 -5.20523
upperneck -2.8557 -6.83318 5.26135
head 0.125563 -3.36765 2.44419
rclavicle 3.35201e-014 -4.17448e-015
rhumerus 63.1141 -15.1641 -51.4091
rradius 47.0449
rwrist -65.5498
rhand 3.97545 14.3962
rfingers 7.12502
rthumb 29.3923 -13.2994
lclavicle 3.35201e-014 -4.17448e-015
lhumerus 62.2263 7.6751 47.0761
lradius 61.3755
lwrist 73.9753
lhand 10.1317 26.176
lfingers 7.12502
lthumb 35.2512 52.673
rfemur -20.2086 -1.18987 15.6533
rtibia 38.0154
rfoot -18.5759 -13.8427
rtoes -11.4115
lfemur -17.8839 -0.210574 -22.2021
ltibia 34.7961
lfoot -19.1716 9.35823
ltoes -14.703
